<svg xmlns="http://www.w3.org/2000/svg" version="1.1" xmlns:xlink="http://www.w3.org/1999/xlink" xmlns:svgjs="http://svgjs.dev/svgjs" width="1500" height="125" viewBox="0 0 1500 125"><g transform="matrix(1,0,0,1,-0.9090909090909918,0.3147439835210051)"><svg viewBox="0 0 396 33" data-background-color="#111111" preserveAspectRatio="xMidYMid meet" height="125" width="1500" xmlns="http://www.w3.org/2000/svg" xmlns:xlink="http://www.w3.org/1999/xlink"><g id="tight-bounds" transform="matrix(1,0,0,1,0.2400000000000091,-0.08309241164954528)"><svg viewBox="0 0 395.52 33.16618482329906" height="33.16618482329906" width="395.52"><g><svg viewBox="0 0 395.52 33.16618482329906" height="33.16618482329906" width="395.52"><g><svg viewBox="0 0 395.52 33.16618482329906" height="33.16618482329906" width="395.52"><g id="textblocktransform"><svg viewBox="0 0 395.52 33.16618482329906" height="33.16618482329906" width="395.52" id="textblock"><g><svg viewBox="0 0 395.52 33.16618482329906" height="33.16618482329906" width="395.52"><g transform="matrix(1,0,0,1,0,0)"><svg width="395.52" viewBox="2.05 -37.85 456.11652636718753 38.25" height="33.16618482329906" data-palette-color="#aaaaaa"><g transform="matrix(1,0,0,1,0,0)"><g><svg width="22.631017578124997" viewBox="3.16 -36.36 100.01 36.36" height="8.228" data-palette-color="#aaaaaa" id="scriptelement" x="435.53550878906253" y="-8.228"><path d="M16.05 0L16.05 0 3.16 0 3.16-36.36 16.16-36.36Q21.64-36.36 25.6-34.19 29.56-32.01 31.7-27.95 33.84-23.88 33.84-18.22L33.84-18.22Q33.84-12.54 31.7-8.45 29.56-4.37 25.58-2.18 21.59 0 16.05 0ZM10.85-29.78L10.85-6.59 15.73-6.59Q19.14-6.59 21.48-7.8 23.81-9.02 24.99-11.59 26.17-14.15 26.17-18.22L26.17-18.22Q26.17-22.25 24.99-24.8 23.81-27.36 21.48-28.57 19.16-29.78 15.75-29.78L15.75-29.78 10.85-29.78ZM64.1 0L39.52 0 39.52-36.36 64.02-36.36 64.02-30.02 47.21-30.02 47.21-21.36 62.76-21.36 62.76-15.02 47.21-15.02 47.21-6.34 64.1-6.34 64.1 0ZM68.18-36.36L76.72-36.36 85.51-8.74 85.84-8.74 94.65-36.36 103.17-36.36 90.64 0 80.73 0 68.18-36.36Z" opacity="1" transform="matrix(1,0,0,1,0,0)" fill="#aaaaaa" class="undefined-123" data-fill-palette-color="primary" id="yy-123"></path></svg></g></g><path d="M15.45 0.4Q11.5 0.4 7.83-0.83 4.15-2.05 2.05-4L2.05-4 3.9-7.9Q5.9-6.1 9.03-4.98 12.15-3.85 15.45-3.85L15.45-3.85Q19.8-3.85 21.95-5.33 24.1-6.8 24.1-9.25L24.1-9.25Q24.1-11.05 22.93-12.18 21.75-13.3 20.03-13.9 18.3-14.5 15.15-15.25L15.15-15.25Q11.2-16.2 8.78-17.15 6.35-18.1 4.63-20.08 2.9-22.05 2.9-25.4L2.9-25.4Q2.9-28.2 4.38-30.45 5.85-32.7 8.85-34.05 11.85-35.4 16.3-35.4L16.3-35.4Q19.4-35.4 22.4-34.6 25.4-33.8 27.55-32.3L27.55-32.3 25.9-28.3Q23.7-29.7 21.2-30.43 18.7-31.15 16.3-31.15L16.3-31.15Q12.05-31.15 9.93-29.6 7.8-28.05 7.8-25.6L7.8-25.6Q7.8-23.8 9-22.68 10.2-21.55 11.98-20.93 13.75-20.3 16.8-19.6L16.8-19.6Q20.75-18.65 23.15-17.7 25.55-16.75 27.28-14.8 29-12.85 29-9.55L29-9.55Q29-6.8 27.5-4.53 26-2.25 22.95-0.93 19.9 0.4 15.45 0.4L15.45 0.4ZM55.8-26.5L60.6-26.5 60.6 0 56 0 56-4.2Q54.4-2 51.95-0.85 49.5 0.3 46.55 0.3L46.55 0.3Q42.7 0.3 39.65-1.4 36.6-3.1 34.87-6.18 33.15-9.25 33.15-13.25L33.15-13.25Q33.15-17.25 34.87-20.3 36.6-23.35 39.65-25.05 42.7-26.75 46.55-26.75L46.55-26.75Q49.4-26.75 51.8-25.68 54.2-24.6 55.8-22.5L55.8-22.5 55.8-26.5ZM46.95-3.9Q49.45-3.9 51.5-5.08 53.55-6.25 54.7-8.38 55.85-10.5 55.85-13.25L55.85-13.25Q55.85-16 54.7-18.13 53.55-20.25 51.5-21.4 49.45-22.55 46.95-22.55L46.95-22.55Q44.4-22.55 42.37-21.4 40.35-20.25 39.17-18.13 38-16 38-13.25L38-13.25Q38-10.5 39.17-8.38 40.35-6.25 42.37-5.08 44.4-3.9 46.95-3.9L46.95-3.9ZM102.85-26.75Q107.85-26.75 110.77-23.85 113.7-20.95 113.7-15.25L113.7-15.25 113.7 0 108.9 0 108.9-14.7Q108.9-18.55 107.12-20.5 105.35-22.45 102.05-22.45L102.05-22.45Q98.4-22.45 96.25-20.18 94.1-17.9 94.1-13.65L94.1-13.65 94.1 0 89.3 0 89.3-14.7Q89.3-18.55 87.52-20.5 85.75-22.45 82.45-22.45L82.45-22.45Q78.8-22.45 76.65-20.18 74.5-17.9 74.5-13.65L74.5-13.65 74.5 0 69.7 0 69.7-26.5 74.3-26.5 74.3-22.55Q75.75-24.6 78.1-25.68 80.45-26.75 83.45-26.75L83.45-26.75Q86.55-26.75 88.95-25.5 91.35-24.25 92.65-21.85L92.65-21.85Q94.15-24.15 96.82-25.45 99.5-26.75 102.85-26.75L102.85-26.75ZM122.54 0L122.54-26.5 127.34-26.5 127.34 0 122.54 0ZM124.94-31.6Q123.54-31.6 122.62-32.5 121.69-33.4 121.69-34.7L121.69-34.7Q121.69-36 122.62-36.93 123.54-37.85 124.94-37.85L124.94-37.85Q126.34-37.85 127.27-36.98 128.19-36.1 128.19-34.8L128.19-34.8Q128.19-33.45 127.27-32.52 126.34-31.6 124.94-31.6L124.94-31.6ZM156.39-26.5L161.19-26.5 161.19 0 156.64 0 156.64-4Q155.19-1.95 152.81-0.83 150.44 0.3 147.64 0.3L147.64 0.3Q142.34 0.3 139.29-2.63 136.24-5.55 136.24-11.25L136.24-11.25 136.24-26.5 141.04-26.5 141.04-11.8Q141.04-7.95 142.89-5.98 144.74-4 148.19-4L148.19-4Q151.99-4 154.19-6.3 156.39-8.6 156.39-12.8L156.39-12.8 156.39-26.5ZM190.54-37.1L195.34-37.1 195.34 0 190.74 0 190.74-4.2Q189.14-2 186.69-0.85 184.24 0.3 181.29 0.3L181.29 0.3Q177.44 0.3 174.39-1.4 171.34-3.1 169.61-6.18 167.89-9.25 167.89-13.25L167.89-13.25Q167.89-17.25 169.61-20.3 171.34-23.35 174.39-25.05 177.44-26.75 181.29-26.75L181.29-26.75Q184.14-26.75 186.54-25.68 188.94-24.6 190.54-22.5L190.54-22.5 190.54-37.1ZM181.69-3.9Q184.19-3.9 186.24-5.08 188.29-6.25 189.44-8.38 190.59-10.5 190.59-13.25L190.59-13.25Q190.59-16 189.44-18.13 188.29-20.25 186.24-21.4 184.19-22.55 181.69-22.55L181.69-22.55Q179.14-22.55 177.11-21.4 175.09-20.25 173.91-18.13 172.74-16 172.74-13.25L172.74-13.25Q172.74-10.5 173.91-8.38 175.09-6.25 177.11-5.08 179.14-3.9 181.69-3.9L181.69-3.9ZM224.63-37.1L229.44-37.1 229.44 0 224.83 0 224.83-4.2Q223.23-2 220.78-0.85 218.33 0.3 215.38 0.3L215.38 0.3Q211.53 0.3 208.48-1.4 205.44-3.1 203.71-6.18 201.98-9.25 201.98-13.25L201.98-13.25Q201.98-17.25 203.71-20.3 205.44-23.35 208.48-25.05 211.53-26.75 215.38-26.75L215.38-26.75Q218.23-26.75 220.63-25.68 223.03-24.6 224.63-22.5L224.63-22.5 224.63-37.1ZM215.78-3.9Q218.28-3.9 220.33-5.08 222.38-6.25 223.53-8.38 224.69-10.5 224.69-13.25L224.69-13.25Q224.69-16 223.53-18.13 222.38-20.25 220.33-21.4 218.28-22.55 215.78-22.55L215.78-22.55Q213.23-22.55 211.21-21.4 209.19-20.25 208.01-18.13 206.83-16 206.83-13.25L206.83-13.25Q206.83-10.5 208.01-8.38 209.19-6.25 211.21-5.08 213.23-3.9 215.78-3.9L215.78-3.9ZM238.53 0L238.53-26.5 243.33-26.5 243.33 0 238.53 0ZM240.93-31.6Q239.53-31.6 238.61-32.5 237.68-33.4 237.68-34.7L237.68-34.7Q237.68-36 238.61-36.93 239.53-37.85 240.93-37.85L240.93-37.85Q242.33-37.85 243.26-36.98 244.18-36.1 244.18-34.8L244.18-34.8Q244.18-33.45 243.26-32.52 242.33-31.6 240.93-31.6L240.93-31.6ZM266.63-26.75Q271.68-26.75 274.65-23.83 277.63-20.9 277.63-15.25L277.63-15.25 277.63 0 272.83 0 272.83-14.7Q272.83-18.55 270.98-20.5 269.13-22.45 265.68-22.45L265.68-22.45Q261.78-22.45 259.53-20.18 257.28-17.9 257.28-13.65L257.28-13.65 257.28 0 252.48 0 252.48-26.5 257.08-26.5 257.08-22.5Q258.53-24.55 261-25.65 263.48-26.75 266.63-26.75L266.63-26.75ZM320.22 0L310.27-12.35 304.77-7.25 304.77 0 299.97 0 299.97-37.1 304.77-37.1 304.77-13.3 319.22-26.5 325.02-26.5 313.87-15.55 326.12 0 320.22 0ZM344.92-26.75Q349.97-26.75 352.95-23.83 355.92-20.9 355.92-15.25L355.92-15.25 355.92 0 351.12 0 351.12-14.7Q351.12-18.55 349.27-20.5 347.42-22.45 343.97-22.45L343.97-22.45Q340.07-22.45 337.82-20.18 335.57-17.9 335.57-13.65L335.57-13.65 335.57 0 330.77 0 330.77-37.1 335.57-37.1 335.57-22.75Q337.07-24.65 339.5-25.7 341.92-26.75 344.92-26.75L344.92-26.75ZM385.17-26.5L389.97-26.5 389.97 0 385.37 0 385.37-4.2Q383.77-2 381.32-0.85 378.87 0.3 375.92 0.3L375.92 0.3Q372.07 0.3 369.02-1.4 365.97-3.1 364.24-6.18 362.52-9.25 362.52-13.25L362.52-13.25Q362.52-17.25 364.24-20.3 365.97-23.35 369.02-25.05 372.07-26.75 375.92-26.75L375.92-26.75Q378.77-26.75 381.17-25.68 383.57-24.6 385.17-22.5L385.17-22.5 385.17-26.5ZM376.32-3.9Q378.82-3.9 380.87-5.08 382.92-6.25 384.07-8.38 385.22-10.5 385.22-13.25L385.22-13.25Q385.22-16 384.07-18.13 382.92-20.25 380.87-21.4 378.82-22.55 376.32-22.55L376.32-22.55Q373.77-22.55 371.74-21.4 369.72-20.25 368.54-18.13 367.37-16 367.37-13.25L367.37-13.25Q367.37-10.5 368.54-8.38 369.72-6.25 371.74-5.08 373.77-3.9 376.32-3.9L376.32-3.9ZM413.22-26.75Q418.27-26.75 421.24-23.83 424.22-20.9 424.22-15.25L424.22-15.25 424.22 0 419.42 0 419.42-14.7Q419.42-18.55 417.57-20.5 415.72-22.45 412.27-22.45L412.27-22.45Q408.37-22.45 406.12-20.18 403.87-17.9 403.87-13.65L403.87-13.65 403.87 0 399.07 0 399.07-26.5 403.67-26.5 403.67-22.5Q405.12-24.55 407.59-25.65 410.07-26.75 413.22-26.75L413.22-26.75Z" opacity="1" transform="matrix(1,0,0,1,0,0)" fill="#aaaaaa" class="wordmark-text-0" data-fill-palette-color="primary" id="text-0"></path></svg></g></svg></g></svg></g></svg></g><g></g></svg></g><defs></defs></svg><rect width="395.52" height="33.16618482329906" fill="none" stroke="none" visibility="hidden"></rect></g></svg></g></svg>